<svg width="12" height="12" viewBox="0 0 12 12" fill="none" xmlns="http://www.w3.org/2000/svg">
<path d="M0.077559 6.38085C0.125153 6.5036 0.196519 6.61575 0.28756 6.71085L5.28756 11.7109C5.3808 11.8041 5.49149 11.8781 5.61331 11.9285C5.73513 11.979 5.8657 12.0049 5.99756 12.0049C6.26386 12.0049 6.51925 11.8992 6.70756 11.7109C6.8008 11.6176 6.87476 11.5069 6.92522 11.3851C6.97568 11.2633 7.00165 11.1327 7.00165 11.0009C7.00165 10.7346 6.89586 10.4792 6.70756 10.2909L3.40756 7.00085L10.9976 7.00085C11.2628 7.00085 11.5171 6.89549 11.7047 6.70796C11.8922 6.52042 11.9976 6.26607 11.9976 6.00085C11.9976 5.73564 11.8922 5.48128 11.7047 5.29375C11.5171 5.10621 11.2628 5.00085 10.9976 5.00085L3.40756 5.00085L6.70756 1.71085C6.80129 1.61789 6.87568 1.50729 6.92645 1.38543C6.97722 1.26357 7.00336 1.13286 7.00336 1.00085C7.00336 0.868841 6.97722 0.738135 6.92645 0.616275C6.87568 0.494416 6.80129 0.383816 6.70756 0.290853C6.6146 0.197125 6.504 0.122729 6.38214 0.07196C6.26028 0.0211911 6.12957 -0.00494627 5.99756 -0.00494628C5.86555 -0.00494629 5.73484 0.021191 5.61298 0.0719599C5.49112 0.122729 5.38052 0.197125 5.28756 0.290853L0.28756 5.29085C0.196519 5.38595 0.125153 5.4981 0.0775591 5.62085C-0.0224585 5.86431 -0.0224585 6.13739 0.077559 6.38085Z" fill="#3B3B3B"/>
</svg>
